# xmcd
#
# Track frame offsets: 
#        150
#        18783
#        36023
#        53046
#        67246
#        82700
#        118314
#        128451
#        143257
#        165022
#        189971
#
# Disc length: 2732 seconds
#
# Revision: 1
# Processed by: cddbd v1.5.2PL0 Copyright (c) Steve Scherf et al.
# Submitted via: ExactAudioCopy v0.99pb3
#
DISCID=780aaa0b
DTITLE=Favez - Bigger Mountains Higher Flags
DYEAR=2007
DGENRE=Rock
TTITLE0=The Highways Are Deserted
TTITLE1=When We Were Kings
TTITLE2=She Wakes Up Every Night
TTITLE3=Naked And Gasolined
TTITLE4=Here, We're Nothing
TTITLE5=The Goodbye Song
TTITLE6=The Torch Song
TTITLE7=And We Dance
TTITLE8=If I Didn't Come For Forgiveness
TTITLE9=White Limousine
TTITLE10=We Used To Fight A Lot
EXTD=
EXTT0=
EXTT1=
EXTT2=
EXTT3=
EXTT4=
EXTT5=
EXTT6=
EXTT7=
EXTT8=
EXTT9=
EXTT10=
PLAYORDER=
